<?xml version="1.0" encoding="UTF-8" standalone="no"?>
<svg
   xmlns:dc="http://purl.org/dc/elements/1.1/"
   xmlns:cc="http://creativecommons.org/ns#"
   xmlns:rdf="http://www.w3.org/1999/02/22-rdf-syntax-ns#"
   xmlns:svg="http://www.w3.org/2000/svg"
   xmlns="http://www.w3.org/2000/svg"
   xmlns:sodipodi="http://sodipodi.sourceforge.net/DTD/sodipodi-0.dtd"
   xmlns:inkscape="http://www.inkscape.org/namespaces/inkscape"
   version="1.1"
   x="0"
   y="0"
   viewBox="0 0 345 64"
   xml:space="preserve"
   id="svg80"
   sodipodi:docname="logo-bundes#tag.svg"
   inkscape:version="0.92.5 (2060ec1f9f, 2020-04-08)"><metadata
     id="metadata86"><rdf:RDF><cc:Work
         rdf:about=""><dc:format>image/svg+xml</dc:format><dc:type
           rdf:resource="http://purl.org/dc/dcmitype/StillImage" /><dc:title></dc:title></cc:Work></rdf:RDF></metadata><defs
     id="defs84" /><sodipodi:namedview
     pagecolor="#ffffff"
     bordercolor="#666666"
     borderopacity="1"
     objecttolerance="10"
     gridtolerance="10"
     guidetolerance="10"
     inkscape:pageopacity="0"
     inkscape:pageshadow="2"
     inkscape:window-width="1848"
     inkscape:window-height="1016"
     id="namedview82"
     showgrid="false"
     inkscape:zoom="3.1102383"
     inkscape:cx="203.20163"
     inkscape:cy="42.018399"
     inkscape:window-x="72"
     inkscape:window-y="27"
     inkscape:window-maximized="1"
     inkscape:current-layer="svg80" /><path
     d="M15.9 46.7c0.3-1.8 0.8-4.3 1.5-7.5 0 0-9.4 9.1-9.5 9.2 3.6 2.7 6.5-0.3 6.7-0.4C14.6 48 15.2 47.4 15.9 46.7M24 52.9c0 0.9 0.8 1.7 1.7 1.7 0.9 0 1.7-0.8 1.7-1.7v-7c-1.2 1.1-2.4 2.1-3.4 2.9V52.9zM17.8 37.3c0.5-2.4 1.2-5 1.9-7.9 0 0-15.4 14.3-15.5 14.4 3.8 2.5 6.6 0 6.9-0.3C11.5 43.3 14.8 40.2 17.8 37.3M8.7 38.1c0.3-0.2 7.4-6.8 11.6-10.6 0.4-1.4 0.8-2.9 1.3-4.5 -0.3-0.2-0.7-0.6-1.2-1 0 0-18.4 16-18.6 16.1C5.4 41.1 8.5 38.3 8.7 38.1M36.6 52.9c0 0.9 0.8 1.7 1.7 1.7 0.9 0 1.7-0.8 1.7-1.7v-4.1c-1-0.8-2.1-1.8-3.4-2.9V52.9zM32.4 52.8c0 0.9 0.8 1.7 1.7 1.7 0.9 0 1.7-0.8 1.7-1.7v-7.6c-1.1-1-2.3-2.1-3.4-3.2V52.8zM28.2 52.8c0 0.9 0.8 1.7 1.7 1.7 0.9 0 1.7-0.8 1.7-1.7V42.1c-1.1 1.1-2.3 2.2-3.4 3.2V52.8zM0 24.1c3.5 3.1 6.8 0.6 7 0.4 0.3-0.3 6.8-5.4 10.4-8.4 -0.1-0.4-0.1-0.8-0.1-1.2 0 0 0-0.7 0-0.7v-3.8C10.5 15.7 0.1 24 0 24.1M42.5 23.1c0.4 1.5 0.9 3 1.3 4.5 4.2 3.9 11.3 10.4 11.6 10.6 0.2 0.2 3.3 3 6.9 0 -0.1-0.1-18.6-16.1-18.6-16.1C43.2 22.5 42.8 22.8 42.5 23.1M46.2 37.3c3 2.9 6.3 6 6.7 6.3 0.3 0.3 3.1 2.8 6.9 0.3 -0.1-0.1-15.5-14.4-15.5-14.4C45 32.3 45.6 35 46.2 37.3M44.4 21.3c4 3.5 12 10.3 12.7 10.8 0.3 0.2 3.4 2.5 6.8-0.4 -0.1-0.1-17.5-14.3-17.5-14.3C46 19 45.2 20.3 44.4 21.3M6.9 32.1c0.7-0.5 8.7-7.4 12.7-10.8 -0.8-1-1.5-2.3-2-3.9 0 0-17.4 14.2-17.5 14.3C3.5 34.6 6.6 32.3 6.9 32.1M48.1 46.7c0.7 0.7 1.3 1.3 1.3 1.3 0.1 0.1 3.1 3.1 6.7 0.4 -0.1-0.1-9.5-9.2-9.5-9.2C47.3 42.4 47.8 45 48.1 46.7M51.4 51.4c-0.4-0.2-3.6-1.8-3.6-1.8 -1.3-7.3-2.7-13.4-3.9-17.9 -0.7-2.8-1.4-5.9-2.2-9 1-0.7 4.1-3.1 4.2-7.7 0 0 0-0.4 0-0.7V8.2l17.5 13.6c-0.3-1.6-2.4-8.5-9.5-15.3 0 0-6-5.7-9.7-5.7 -0.6 0-3.4 0.2-3.4 4.2v7.1c0 0 0 1.5-1.2 1.5h-0.3c-0.7-2.4-1.4-4.9-2.2-7.3 -0.1-0.3-0.2-0.6-0.3-0.9 -1-3.3-2.5-4.3-3.6-4.8 -0.7-0.4-1.8-0.6-3.3-0.6 -3.9 0.1-4.6 1.6-4.7 2.1 -0.1 0.9 0.2 2 0.3 2.4 0-0.3 0-0.6 0.3-1 0.3-0.3 0.8-0.6 1.5-0.6h2.8c0 0 0.4 0 0.4 0.3 0 0.3-0.4 0.3-0.4 0.3h-2.6c-0.6 0-1 0.1-1.2 0.4 0 0-0.1 0.1-0.1 0.1 0 0 0.1 0 0.1 0 0.2 0 0.4 0 0.6 0 0.4 0.1 1.4 0.4 1.4 1.3 0 0.1 0 0.3-0.1 0.4 -1 2.7-2 5.4-2.9 8h-1c-1.2 0-1.2-1.5-1.2-1.5V5c0-4-2.8-4.2-3.4-4.2 -3.7 0-9.7 5.7-9.7 5.7 -7.1 6.8-9.2 13.7-9.5 15.3L18.1 8.2v6c0 0.3 0 0.7 0 0.7 0.1 5 3.6 7.4 4.4 7.8 -4.6 15.5-6.4 26.8-6.4 26.8s-3.1 1.6-3.6 1.8c0 0-1 0.4-0.5 1.4 0 0 0.2 0.5 0.7 0.6 0 0-0.4-0.7 0.1-0.9l2.8-1.2c0 0-1.3 1.7-1.6 2.1 0 0-0.7 0.8 0.2 1.5 0 0 0.4 0.4 0.9 0.2 0 0-0.7-0.4-0.3-0.8l2.2-2.4c0 0-0.6 1.9-0.8 2.4 0 0-0.4 1 0.6 1.4 0 0 0.5 0.2 0.9 0 0 0-0.8-0.2-0.6-0.7l0.6-1.3c0 0 0.5-1.3 1.3-1.4l0.4-0.1c1.6-0.2 2.3 0 2.3 0 0.6 0.2 0.2 1 0.2 1 0.6-0.2 0.7-0.7 0.7-0.7 0.3-1.1-0.7-1.5-0.8-1.6 -0.5-0.2-0.9-0.4-0.9-0.4s6.4-4.9 11.2-9.9c4.9 5 11.2 9.9 11.2 9.9s-0.4 0.2-0.9 0.4c0 0-1.1 0.5-0.8 1.6 0 0 0.2 0.6 0.7 0.7 0 0-0.4-0.8 0.2-1 0 0 0.7-0.2 2.3 0l0.4 0.1c0.8 0.1 1.3 1.4 1.3 1.4l0.6 1.4c0.2 0.5-0.6 0.7-0.6 0.7 0.4 0.3 0.9 0 0.9 0 1-0.4 0.6-1.4 0.6-1.4 -0.2-0.5-0.8-2.4-0.8-2.4l2.2 2.4c0.4 0.4-0.3 0.8-0.3 0.8 0.5 0.1 0.9-0.2 0.9-0.2 0.8-0.7 0.2-1.5 0.1-1.5 -0.3-0.4-1.6-2.1-1.6-2.1l2.8 1.2c0.5 0.2 0.1 0.9 0.1 0.9 0.5-0.1 0.7-0.6 0.7-0.6C52.4 51.8 51.4 51.4 51.4 51.4M29.5 2.1c-0.4 0-0.7-0.3-0.7-0.7 0-0.4 0.3-0.7 0.7-0.7 0.4 0 0.7 0.3 0.7 0.7C30.3 1.8 29.9 2.1 29.5 2.1M22.4 15.9c0-0.2 0-0.3 0.1-0.5 0.1 0.3 0.4 0.5 0.8 0.5 0.3 0 0.6-0.2 0.8-0.5 0.1 0.1 0.1 0.3 0.1 0.5 0 0.6-0.4 1.1-0.9 1.1S22.4 16.5 22.4 15.9M22.5 31.1c0.1 0.3 0.4 0.5 0.8 0.5 0.3 0 0.6-0.2 0.8-0.5 0.1 0.1 0.1 0.3 0.1 0.5 0 0.6-0.4 1.1-0.9 1.1s-0.9-0.5-0.9-1.1C22.4 31.4 22.4 31.2 22.5 31.1M20.4 44.4c-0.5 0-0.9-0.5-0.9-1.1 0-0.2 0-0.3 0.1-0.5 0.1 0.3 0.4 0.5 0.8 0.5 0.3 0 0.6-0.2 0.8-0.5 0.1 0.1 0.1 0.3 0.1 0.5C21.3 43.9 20.9 44.4 20.4 44.4M23.3 40.5c-0.5 0-0.9-0.5-0.9-1.1 0-0.2 0-0.3 0.1-0.5 0.1 0.3 0.4 0.5 0.8 0.5 0.3 0 0.6-0.2 0.8-0.5 0.1 0.1 0.1 0.3 0.1 0.5C24.1 40 23.7 40.5 23.3 40.5M24.8 44.4c-0.5 0-0.9-0.5-0.9-1.1 0-0.2 0-0.3 0.1-0.5 0.1 0.3 0.4 0.5 0.8 0.5 0.3 0 0.6-0.2 0.8-0.5 0.1 0.1 0.1 0.3 0.1 0.5C25.6 43.9 25.3 44.4 24.8 44.4M25.4 36.6c-0.5 0-0.9-0.5-0.9-1.1 0-0.2 0-0.3 0.1-0.5 0.1 0.3 0.4 0.5 0.8 0.5 0.3 0 0.6-0.2 0.8-0.5 0.1 0.1 0.1 0.3 0.1 0.5C26.3 36.1 25.9 36.6 25.4 36.6M25.4 28.8c-0.5 0-0.9-0.5-0.9-1.1 0-0.2 0-0.3 0.1-0.5 0.1 0.3 0.4 0.5 0.8 0.5 0.3 0 0.6-0.2 0.8-0.5 0.1 0.1 0.1 0.3 0.1 0.5C26.3 28.3 25.9 28.8 25.4 28.8M25.4 20.9c-0.5 0-0.9-0.5-0.9-1.1 0-0.2 0-0.3 0.1-0.5 0.1 0.3 0.4 0.5 0.8 0.5 0.3 0 0.6-0.2 0.8-0.5 0.1 0.1 0.1 0.3 0.1 0.5C26.3 20.4 25.9 20.9 25.4 20.9M27.6 40.5c-0.5 0-0.9-0.5-0.9-1.1 0-0.2 0-0.3 0.1-0.5 0.1 0.3 0.4 0.5 0.8 0.5 0.3 0 0.6-0.2 0.8-0.5 0.1 0.1 0.1 0.3 0.1 0.5C28.5 40 28.1 40.5 27.6 40.5M27.6 32.7c-0.5 0-0.9-0.5-0.9-1.1 0-0.2 0-0.3 0.1-0.5 0.1 0.3 0.4 0.5 0.8 0.5 0.3 0 0.6-0.2 0.8-0.5 0.1 0.1 0.1 0.3 0.1 0.5C28.5 32.2 28.1 32.7 27.6 32.7M27.6 24.9c-0.5 0-0.9-0.5-0.9-1.1 0-0.2 0-0.3 0.1-0.5 0.1 0.3 0.4 0.5 0.8 0.5 0.3 0 0.6-0.2 0.8-0.5 0.1 0.1 0.1 0.3 0.1 0.5C28.5 24.4 28.1 24.9 27.6 24.9M27.6 17c-0.5 0-0.9-0.5-0.9-1.1 0-0.2 0-0.3 0.1-0.5 0.1 0.3 0.4 0.5 0.8 0.5 0.3 0 0.6-0.2 0.8-0.5 0.1 0.1 0.1 0.3 0.1 0.5C28.5 16.5 28.1 17 27.6 17M29.8 36.6c-0.5 0-0.9-0.5-0.9-1.1 0-0.2 0-0.3 0.1-0.5 0.1 0.3 0.4 0.5 0.8 0.5 0.3 0 0.6-0.2 0.8-0.5 0.1 0.1 0.1 0.3 0.1 0.5C30.7 36.1 30.3 36.6 29.8 36.6M29.8 28.8c-0.5 0-0.9-0.5-0.9-1.1 0-0.2 0-0.3 0.1-0.5 0.1 0.3 0.4 0.5 0.8 0.5 0.3 0 0.6-0.2 0.8-0.5 0.1 0.1 0.1 0.3 0.1 0.5C30.7 28.3 30.3 28.8 29.8 28.8M29.8 20.9c-0.5 0-0.9-0.5-0.9-1.1 0-0.2 0-0.3 0.1-0.5 0.1 0.3 0.4 0.5 0.8 0.5 0.3 0 0.6-0.2 0.8-0.5 0.1 0.1 0.1 0.3 0.1 0.5C30.7 20.4 30.3 20.9 29.8 20.9M29.8 13.1c-0.5 0-0.9-0.5-0.9-1.1 0-0.2 0-0.3 0.1-0.5 0.1 0.3 0.4 0.5 0.8 0.5 0.3 0 0.6-0.2 0.8-0.5 0.1 0.1 0.1 0.3 0.1 0.5C30.7 12.6 30.3 13.1 29.8 13.1M32 32.7c-0.5 0-0.9-0.5-0.9-1.1 0-0.2 0-0.3 0.1-0.5 0.1 0.3 0.4 0.5 0.8 0.5 0.3 0 0.6-0.2 0.8-0.5 0.1 0.1 0.1 0.3 0.1 0.5C32.9 32.2 32.5 32.7 32 32.7M32 24.9c-0.5 0-0.9-0.5-0.9-1.1 0-0.2 0-0.3 0.1-0.5 0.1 0.3 0.4 0.5 0.8 0.5 0.3 0 0.6-0.2 0.8-0.5 0.1 0.1 0.1 0.3 0.1 0.5C32.9 24.4 32.5 24.9 32 24.9M32 17c-0.5 0-0.9-0.5-0.9-1.1 0-0.2 0-0.3 0.1-0.5 0.1 0.3 0.4 0.5 0.8 0.5 0.3 0 0.6-0.2 0.8-0.5 0.1 0.1 0.1 0.3 0.1 0.5C32.9 16.5 32.5 17 32 17M40 15.4c0.1 0.3 0.4 0.5 0.8 0.5 0.3 0 0.6-0.2 0.8-0.5 0.1 0.1 0.1 0.3 0.1 0.5 0 0.6-0.4 1.1-0.8 1.1 -0.5 0-0.8-0.5-0.8-1.1C39.9 15.8 39.9 15.6 40 15.4M40 31.1c0.1 0.3 0.4 0.5 0.8 0.5 0.3 0 0.6-0.2 0.8-0.5 0.1 0.1 0.1 0.3 0.1 0.5 0 0.6-0.4 1.1-0.8 1.1 -0.5 0-0.8-0.5-0.8-1.1C39.9 31.4 39.9 31.2 40 31.1M37.8 19.3c0.1 0.3 0.4 0.5 0.8 0.5 0.3 0 0.6-0.2 0.8-0.5 0.1 0.1 0.1 0.3 0.1 0.5 0 0.6-0.4 1.1-0.9 1.1s-0.9-0.5-0.9-1.1C37.7 19.6 37.7 19.5 37.8 19.3M37.8 27.2c0.1 0.3 0.4 0.5 0.8 0.5 0.3 0 0.6-0.2 0.8-0.5 0.1 0.1 0.1 0.3 0.1 0.5 0 0.6-0.4 1.1-0.9 1.1s-0.9-0.5-0.9-1.1C37.7 27.5 37.7 27.3 37.8 27.2M34.2 36.6c-0.5 0-0.9-0.5-0.9-1.1 0-0.2 0-0.3 0.1-0.5 0.1 0.3 0.4 0.5 0.8 0.5 0.3 0 0.6-0.2 0.8-0.5 0.1 0.1 0.1 0.3 0.1 0.5C35.1 36.1 34.7 36.6 34.2 36.6M34.2 28.8c-0.5 0-0.9-0.5-0.9-1.1 0-0.2 0-0.3 0.1-0.5 0.1 0.3 0.4 0.5 0.8 0.5 0.3 0 0.6-0.2 0.8-0.5 0.1 0.1 0.1 0.3 0.1 0.5C35.1 28.3 34.7 28.8 34.2 28.8M34.2 20.9c-0.5 0-0.9-0.5-0.9-1.1 0-0.2 0-0.3 0.1-0.5 0.1 0.3 0.4 0.5 0.8 0.5 0.3 0 0.6-0.2 0.8-0.5 0.1 0.1 0.1 0.3 0.1 0.5C35.1 20.4 34.7 20.9 34.2 20.9M34.2 13.1c-0.5 0-0.9-0.5-0.9-1.1 0-0.2 0-0.3 0.1-0.5 0.1 0.3 0.4 0.5 0.8 0.5 0.3 0 0.6-0.2 0.8-0.5 0.1 0.1 0.1 0.3 0.1 0.5C35.1 12.6 34.7 13.1 34.2 13.1M36.4 40.5c-0.5 0-0.9-0.5-0.9-1.1 0-0.2 0-0.3 0.1-0.5 0.1 0.3 0.4 0.5 0.8 0.5 0.3 0 0.6-0.2 0.8-0.5 0.1 0.1 0.1 0.3 0.1 0.5C37.2 40 36.9 40.5 36.4 40.5M36.4 32.7c-0.5 0-0.9-0.5-0.9-1.1 0-0.2 0-0.3 0.1-0.5 0.1 0.3 0.4 0.5 0.8 0.5 0.3 0 0.6-0.2 0.8-0.5 0.1 0.1 0.1 0.3 0.1 0.5C37.2 32.2 36.9 32.7 36.4 32.7M36.4 24.9c-0.5 0-0.9-0.5-0.9-1.1 0-0.2 0-0.3 0.1-0.5 0.1 0.3 0.4 0.5 0.8 0.5 0.3 0 0.6-0.2 0.8-0.5 0.1 0.1 0.1 0.3 0.1 0.5C37.2 24.4 36.9 24.9 36.4 24.9M36.4 17c-0.5 0-0.9-0.5-0.9-1.1 0-0.2 0-0.3 0.1-0.5 0.1 0.3 0.4 0.5 0.8 0.5 0.3 0 0.6-0.2 0.8-0.5 0.1 0.1 0.1 0.3 0.1 0.5C37.2 16.5 36.9 17 36.4 17M37.7 35.5c0-0.2 0-0.3 0.1-0.5 0.1 0.3 0.4 0.5 0.8 0.5 0.3 0 0.6-0.2 0.8-0.5 0.1 0.1 0.1 0.3 0.1 0.5 0 0.6-0.4 1.1-0.9 1.1S37.7 36.1 37.7 35.5M39.2 44.4c-0.5 0-0.9-0.5-0.9-1.1 0-0.2 0-0.3 0.1-0.5 0.1 0.3 0.4 0.5 0.8 0.5 0.3 0 0.6-0.2 0.8-0.5 0.1 0.1 0.1 0.3 0.1 0.5C40.1 43.9 39.7 44.4 39.2 44.4M40.7 40.5c-0.5 0-0.9-0.5-0.9-1.1 0-0.2 0-0.3 0.1-0.5 0.1 0.3 0.4 0.5 0.8 0.5 0.3 0 0.6-0.2 0.8-0.5 0.1 0.1 0.1 0.3 0.1 0.5C41.6 40 41.2 40.5 40.7 40.5M43.6 44.4c-0.5 0-0.9-0.5-0.9-1.1 0-0.2 0-0.3 0.1-0.5 0.1 0.3 0.4 0.5 0.8 0.5 0.3 0 0.6-0.2 0.8-0.5 0.1 0.1 0.1 0.3 0.1 0.5C44.5 43.9 44.1 44.4 43.6 44.4M46.7 14.2c0 0 0 0.7 0 0.7 0 0.4 0 0.9-0.1 1.2 3.6 2.9 10.1 8.1 10.4 8.4 0.2 0.2 3.5 2.7 7-0.4 -0.1-0.1-10.5-8.4-17.3-13.7V14.2z"
     id="path76" /><path
     d="m 112.1,35.5 c 2.2,0 2.1,-0.3 2.1,-1.5 V 23.2 c 0,-1.2 0,-1.5 -2.1,-1.5 V 21 h 3.1 4.9 c 1.6,0 3.3,0.1 4.6,1.1 1.8,1.5 2,4 2,6.2 0,5.4 -1.3,7.7 -6.8,7.9 h -4.7 -3.1 z m 4.1,-0.3 c 0.9,0.1 1.6,0.1 2.2,0.1 4.7,0 5.9,-1.6 5.9,-6.3 0,-4.2 -0.2,-7.2 -5.1,-7.2 -0.9,0 -1.9,0 -3,0.2 z m 14.7,-4.1 c 0,2 0,4.6 2.9,4.6 2.3,0 2.4,-1.6 2.6,-2.6 0,-0.4 0.4,-0.4 0.8,-0.4 0.3,0 0.7,0 0.7,0.4 -0.4,2.4 -2.1,3.3 -4.4,3.3 -3.8,0 -4.5,-2.6 -4.5,-5.9 0,-3 1.8,-4.8 4.8,-4.8 3.4,0 4.5,2.2 4.3,5.4 z m 5.1,-0.8 c 0.1,-2 -0.3,-3.9 -2.5,-3.9 -2.2,0 -2.6,2 -2.6,3.9 z m 12.1,4.6 c -0.7,0.9 -2.4,1.5 -3.5,1.5 -2,0 -3.3,-0.6 -3.3,-2.8 v -5.5 c 0,-1.3 -0.1,-1.5 -2,-1.5 v -0.7 h 3.8 v 6.5 c 0,1.7 0.1,3 2.2,3 2.6,0 2.7,-1.7 2.7,-3.8 V 28 c 0,-1.2 -0.1,-1.5 -1.9,-1.5 v -0.7 h 3.7 v 8 c 0,1.3 0.1,1.5 2,1.5 V 36 h -2 -1.8 v -1.1 z m 8.6,-8.1 v 6.3 c 0,1.1 0.1,2.4 1.5,2.4 0.4,0 0.7,-0.1 1.1,-0.2 l 0.4,-0.2 0.3,0.6 c -0.7,0.3 -1.8,0.6 -2.6,0.6 -2.3,0 -2.4,-1.6 -2.4,-3.4 v -6.2 h -1.7 v -0.8 h 1.7 v -3 l 1.8,-0.8 v 3.7 h 2.5 v 0.8 h -2.6 z m 4.8,6 h 1.2 c 0.2,1.4 -0.2,2.8 2.2,2.8 1.2,0 2.6,-0.6 2.6,-2 0,-1.4 -1.4,-1.7 -2.8,-2 -1.4,-0.3 -2.8,-0.8 -2.8,-2.6 0,-2.5 1.8,-3.3 4.1,-3.3 0.9,0 1.9,0.2 2.8,0.6 v 2.6 h -1.2 c -0.2,-1.6 0,-2.4 -1.9,-2.4 -1.7,0.1 -2.1,0.7 -2.1,2 0,0.6 0.5,1.2 1.3,1.4 1.9,0.6 4.4,0.7 4.4,3.3 0,2.9 -2.7,3.3 -5,3.3 -0.9,0 -1.8,-0.2 -2.6,-0.6 v -3.1 z m 19,0.2 v 2.6 c -1.4,0.7 -2.6,0.9 -4.1,0.9 -3.8,0 -4.9,-1.8 -4.9,-5.4 0,-3.5 1.3,-5.3 5,-5.3 1.1,0 3.2,0.2 4,1 v 2.3 h -1.2 c -0.2,-1.1 0.1,-2.6 -2.5,-2.6 -3,0 -3.3,2.2 -3.3,4.6 0,2.4 0.3,4.7 3.3,4.7 2.5,0 2.3,-1.1 2.6,-2.7 h 1.1 z m 12.6,0.9 c 0,1.3 0.1,1.6 2,1.6 v 0.7 h -2.9 -2.9 v -0.7 c 1.7,-0.1 2,0 2,-1.6 V 30 c 0,-1.8 0,-3.4 -2.3,-3.4 -2.2,0 -2.8,1.3 -2.8,3.3 v 4 c 0,1.3 0.1,1.6 2,1.6 v 0.7 h -2.9 -2.9 v -0.7 c 1.7,-0.1 2,0 2,-1.6 V 22 c 0,-1.3 -0.1,-1.6 -2,-1.6 v -0.7 h 3.8 v 7.4 0 c 0.5,-0.7 1.4,-1.4 3.6,-1.5 2.9,0 3.2,1.4 3.2,3.8 v 4.5 z m 5.8,-2.8 c 0,2 0,4.6 2.9,4.6 2.3,0 2.4,-1.6 2.6,-2.6 0,-0.4 0.4,-0.4 0.8,-0.4 0.3,0 0.7,0 0.7,0.4 -0.4,2.4 -2.1,3.3 -4.4,3.3 -3.8,0 -4.5,-2.6 -4.5,-5.9 0,-3 1.8,-4.8 4.8,-4.8 3.4,0 4.5,2.2 4.3,5.4 z m 5.1,-0.8 c 0.1,-2 -0.3,-3.9 -2.5,-3.9 -2.2,0 -2.6,2 -2.6,3.9 z m 7,-3.3 c 0.6,-0.7 1.3,-1.3 2.2,-1.3 1.2,0 2,0.6 2,1.8 0,0.7 0,1.2 -0.9,1.2 -0.8,0 -0.8,-0.4 -0.8,-1.1 0,-0.6 -0.4,-0.9 -0.9,-0.9 -1.3,0 -1.5,1.7 -1.5,2.6 v 4.6 c 0,1.4 0.1,1.6 2.2,1.6 v 0.7 h -3.1 -2.9 v -0.7 c 1.8,0 2,-0.2 2,-1.6 v -5.8 c 0,-1.4 -0.2,-1.5 -2,-1.6 v -0.7 h 3.7 z m 12.1,8.5 c 2.2,0 2.1,-0.3 2.1,-1.5 V 23.2 c 0,-1.2 0,-1.5 -2.1,-1.5 V 21 h 3.1 3.9 c 2.8,0 5,0.3 5,3.7 0,2.2 -1,3.1 -3.1,3.5 v 0 c 2.4,0.3 3.6,1.4 3.6,3.8 0,1.7 -0.4,2.8 -1.9,3.6 -1,0.6 -2.9,0.6 -4.1,0.7 h -3.4 -3.1 z m 4.2,-7.7 h 3 c 1.9,0 2.7,-1.1 2.7,-3 0,-2.6 -0.9,-3 -3.3,-3 -0.8,0 -1.6,0.1 -2.4,0.1 z m 0,7.5 1.2,0.1 c 1.1,0 2.1,0 3.2,-0.3 1.5,-0.4 1.7,-1.8 1.7,-3.1 0,-2.6 -1,-3.3 -3.5,-3.3 h -2.6 z m 19.2,-0.4 c -0.7,0.9 -2.4,1.5 -3.5,1.5 -2,0 -3.3,-0.6 -3.3,-2.8 v -5.5 c 0,-1.3 -0.1,-1.5 -2,-1.5 v -0.7 h 3.8 v 6.5 c 0,1.7 0.1,3 2.2,3 2.6,0 2.7,-1.7 2.7,-3.8 V 28 c 0,-1.2 -0.1,-1.5 -1.9,-1.5 v -0.7 h 3.7 v 8 c 0,1.3 0.1,1.5 2,1.5 V 36 h -2 -1.8 v -1.1 z m 9.8,-7.7 c 1.3,-1 2,-1.5 3.7,-1.5 2.9,0 3.2,1.4 3.2,3.8 v 4.4 c 0,1.3 0.1,1.6 1.9,1.6 v 0.7 h -2.8 -2.8 v -0.7 c 1.6,-0.1 1.9,0 1.9,-1.6 V 30 c 0,-1.8 0,-3.4 -2.3,-3.4 -2.3,0 -2.7,1.3 -2.7,3.3 v 4 c 0,1.2 0.1,1.6 1.9,1.6 v 0.7 h -2.8 -2.9 v -0.7 c 1.7,-0.1 2,0 2,-1.6 v -5.8 c 0,-1.4 -0.2,-1.5 -2,-1.6 v -0.7 h 3.7 z M 275.1,22 c 0,-1.4 -0.2,-1.5 -2,-1.6 v -0.7 h 3.8 v 14.2 c 0,1.3 0.1,1.6 2,1.6 v 0.7 h -2 -1.8 v -1.3 c -0.9,1 -1.9,1.5 -3.3,1.5 -3.1,0 -4.6,-1.9 -4.6,-4.9 0,-3.1 1.1,-5.8 4.7,-5.8 1.3,0 2.2,0.3 3.2,1.2 V 22 Z m -0.1,8.6 c 0,-2.3 -0.2,-4.1 -2.9,-4.1 -2.9,0 -2.9,2.9 -2.9,5 0,1.8 0.6,4.1 2.9,4.1 2.3,0 2.9,-1.5 2.9,-3.5 z m 7.8,0.5 c 0,2 0,4.6 2.9,4.6 2.3,0 2.4,-1.6 2.6,-2.6 0,-0.4 0.4,-0.4 0.8,-0.4 0.3,0 0.7,0 0.7,0.4 -0.4,2.4 -2.1,3.3 -4.4,3.3 -3.8,0 -4.5,-2.6 -4.5,-5.9 0,-3 1.8,-4.8 4.8,-4.8 3.4,0 4.5,2.2 4.3,5.4 z m 5.1,-0.8 c 0.1,-2 -0.3,-3.9 -2.5,-3.9 -2.2,0 -2.6,2 -2.6,3.9 z m 4.1,2.5 h 1.2 c 0.2,1.4 -0.2,2.8 2.2,2.8 1.2,0 2.6,-0.6 2.6,-2 0,-1.4 -1.4,-1.7 -2.8,-2 -1.4,-0.3 -2.8,-0.8 -2.8,-2.6 0,-2.5 1.8,-3.3 4.1,-3.3 0.9,0 1.9,0.2 2.8,0.6 v 2.6 h -1.2 c -0.2,-1.6 0,-2.4 -1.9,-2.4 -1.7,0.1 -2.1,0.7 -2.1,2 0,0.6 0.5,1.2 1.3,1.4 1.9,0.6 4.4,0.7 4.4,3.3 0,2.9 -2.7,3.3 -5,3.3 -0.9,0 -1.8,-0.2 -2.6,-0.6 v -3.1 z m 23.1,-6 v 6.3 c 0,1.1 0.1,2.4 1.5,2.4 0.4,0 0.7,-0.1 1.1,-0.2 l 0.4,-0.2 0.3,0.6 c 0.34059,0.681175 -1.8,0.6 -2.6,0.6 -2.3,0 -1.84739,-1.686924 -2.4,-3.4 v -6.2 h -1.7 v -0.8 h 1.7 v -3 l 1.8,-0.8 v 3.7 h 2.5 v 0.8 h -2.6 z m 10.7,1.3 c 1.2,0 -0.8,-1.6 -2.1,-1.6 -1.9,0 -2,0.8 -2,2.1 0,0.5 -0.5,0.6 -1,0.6 -0.6,0 -0.8,-0.5 -0.7,-1.1 0.2,-2 2.3,-2.3 3.9,-2.3 2.7,0 3.6,0.9 3.6,3.5 v 4.8 c 0,1.4 0.2,1.5 1.8,1.5 v 0.7 h -1.8 -1.7 v -0.9 c -0.8,0.7 -1.8,1 -2.8,1 -2.3,0 -3.6,-0.7 -3.6,-3.1 0,-3.4 3.8,-2.9 6.3,-2.9 v -2.3 z m -1.2,3 c -1.8,0 -3.1,0.2 -3.1,2.3 0,1.3 0.5,2.2 1.9,2.2 1.9,0 2.4,-0.7 2.4,-2.4 V 31.1 Z M 340,25.8 h 0.3 v 0.9 l -1.9,-0.1 c -0.92068,-0.04846 0.9,1.6 0.9,2.6 0,2.6 -2.2,3.6 -4.6,3.6 -1.4,-0.1 -1.9,-0.4 -2.2,-0.5 -0.4,1.3 -0.2,2.4 1.1,2.4 1,0 1.9,-0.1 2.8,-0.1 2.2,0 3.9,0.5 3.9,3 0,2.7 -2.8,4 -5.2,4 -1.8,0 -4.9,-0.4 -4.9,-2.8 0,-1.4 0.6,-2 1.7,-2.7 -0.7,-1.3 -0.5,-2.8 0,-4.1 -0.8,-0.7 -1.2,-1.6 -1.2,-2.7 0,-2.4 1.9,-3.7 4.2,-3.7 0.9,0 1.8,0.1 2.6,0.4 z m -7.3,10.5 c 0,-1.081665 -1,1.8 -0.8,2.8 0.4,1.4 2,1.9 3.4,1.9 1.8,0 4.4,-1.5 3.3,-3.8 -0.5,-0.9 -1.5,-0.9 -2.4,-0.8 h -3.5 z m 4.7,-7 c 0,-1.5 -0.5,-2.9 -2.4,-2.9 -1.8,0 -2.4,1.2 -2.4,2.9 0,1.7 0.6,2.9 2.4,2.9 1.8,0 2.4,-1.2 2.4,-2.9 z"
     id="path78"
     inkscape:connector-curvature="0"
     sodipodi:nodetypes="csscccscscccccssscccscscssscccscccssscccsssscccscccccccsscccsscccccccccccccsssssccccscsscccccssscccssscccccccccssssscccccssccccccscccscscssscccscccssssssscccccssccccccsscccssccsccccccssscsccccssccccssscccsssscccscccccccssscccccssssscccccsscscccccccscccccssscccsssssscscscscsccssccccsssssccccscscccccsscccsscccccccsccccssscssscccccsscccsszscsccccsccsssssczssccccsscccs" /><text
     xml:space="preserve"
     style="font-style:normal;font-weight:normal;font-size:15.32813263px;line-height:1.25;font-family:sans-serif;letter-spacing:0px;word-spacing:0px;fill:#000000;fill-opacity:1;stroke:none;stroke-width:0.38320333"
     x="299.42712"
     y="36.661388"
     id="text94"><tspan
       sodipodi:role="line"
       id="tspan92"
       x="299.42712"
       y="36.661388"
       style="stroke-width:0.38320333">#</tspan></text>
</svg>